<svg 
 xmlns="http://www.w3.org/2000/svg"
 xmlns:xlink="http://www.w3.org/1999/xlink"
 width="0.741cm" height="0.741cm">
<path fill-rule="evenodd"  fill="rgb(176, 190, 197)"
 d="M12.158,11.052 L12.158,11.052 C11.547,11.052 11.053,11.547 11.053,12.158 C11.053,12.767 11.548,13.263 12.158,13.263 L12.158,13.263 C12.768,13.263 13.263,12.767 13.263,12.158 C13.263,11.547 12.769,11.052 12.158,11.052 ZM8.842,9.947 C9.452,9.947 9.947,9.452 9.947,8.842 C9.947,8.231 9.452,7.737 8.842,7.737 C8.232,7.737 7.737,8.231 7.737,8.842 C7.737,9.452 8.232,9.947 8.842,9.947 ZM12.158,7.737 L12.158,7.737 C11.547,7.737 11.053,8.231 11.053,8.842 C11.053,9.452 11.547,9.947 12.158,9.947 L12.158,9.947 C12.768,9.947 13.263,9.452 13.263,8.842 C13.263,8.231 12.769,7.737 12.158,7.737 ZM13.263,2.210 L7.737,2.210 L7.737,4.421 L13.263,4.421 L13.263,2.210 ZM15.474,9.947 C16.083,9.947 16.579,9.452 16.579,8.842 C16.579,8.231 16.085,7.737 15.474,7.737 C14.863,7.737 14.368,8.231 14.368,8.842 C14.368,9.452 14.864,9.947 15.474,9.947 ZM15.474,13.263 C16.083,13.263 16.579,12.767 16.579,12.158 C16.579,11.547 16.085,11.052 15.474,11.052 C14.863,11.052 14.368,11.547 14.368,12.158 C14.368,12.767 14.864,13.263 15.474,13.263 ZM8.842,13.263 C9.452,13.263 9.947,12.767 9.947,12.158 C9.947,11.547 9.453,11.052 8.842,11.052 C8.231,11.052 7.737,11.547 7.737,12.158 C7.737,12.767 8.232,13.263 8.842,13.263 ZM5.526,16.579 C6.136,16.579 6.631,16.083 6.631,15.473 C6.631,14.863 6.136,14.368 5.526,14.368 C4.916,14.368 4.421,14.863 4.421,15.473 C4.421,16.083 4.916,16.579 5.526,16.579 ZM18.789,2.210 L17.684,2.210 L17.684,4.421 L18.789,4.421 L18.789,18.789 L2.210,18.789 L2.210,4.421 L3.316,4.421 L3.316,2.210 L2.210,2.210 C0.990,2.210 -0.000,3.200 -0.000,4.421 L-0.000,18.789 C-0.000,20.010 0.990,21.000 2.210,21.000 L18.789,21.000 C20.010,21.000 21.000,20.010 21.000,18.789 L21.000,4.421 C21.000,3.200 20.010,2.210 18.789,2.210 ZM5.526,13.263 C6.136,13.263 6.631,12.767 6.631,12.158 C6.631,11.547 6.136,11.052 5.526,11.052 C4.916,11.052 4.421,11.547 4.421,12.158 C4.421,12.767 4.916,13.263 5.526,13.263 ZM5.526,9.947 C6.136,9.947 6.631,9.452 6.631,8.842 C6.631,8.231 6.136,7.737 5.526,7.737 C4.916,7.737 4.421,8.231 4.421,8.842 C4.421,9.452 4.916,9.947 5.526,9.947 ZM8.842,16.579 C9.452,16.579 9.947,16.083 9.947,15.473 C9.947,14.863 9.452,14.368 8.842,14.368 C8.232,14.368 7.737,14.863 7.737,15.473 C7.737,16.083 8.232,16.579 8.842,16.579 ZM5.526,4.421 C6.136,4.421 6.631,3.926 6.631,3.316 L6.631,1.105 C6.631,0.494 6.137,-0.000 5.526,-0.000 C4.916,-0.000 4.421,0.494 4.421,1.105 L4.421,3.316 C4.421,3.926 4.916,4.421 5.526,4.421 ZM15.474,4.421 C16.083,4.421 16.579,3.926 16.579,3.316 L16.579,1.105 C16.579,0.494 16.083,-0.000 15.474,-0.000 C14.863,-0.000 14.368,0.494 14.368,1.105 L14.368,3.316 C14.368,3.926 14.864,4.421 15.474,4.421 Z"/>
</svg>