<svg 
 xmlns="http://www.w3.org/2000/svg"
 xmlns:xlink="http://www.w3.org/1999/xlink"
 width="0.67cm" height="0.67cm">
<path fill-rule="evenodd"  fill="rgb(176, 190, 197)"
 d="M18.814,8.479 C18.673,8.634 18.474,8.721 18.265,8.721 L11.020,8.721 C10.611,8.721 10.279,8.389 10.279,7.980 L10.279,0.741 C10.279,0.533 10.367,0.334 10.521,0.194 C10.659,0.069 10.837,-0.000 11.021,-0.000 C11.044,-0.000 11.067,0.001 11.090,0.003 C15.282,0.387 18.619,3.722 19.004,7.911 C19.023,8.119 18.954,8.325 18.814,8.479 ZM11.564,1.360 L11.564,7.437 L17.646,7.437 C17.109,4.334 14.669,1.896 11.564,1.360 ZM17.289,10.487 C17.430,10.641 17.499,10.847 17.480,11.055 C17.071,15.510 13.321,19.000 8.754,19.000 C3.916,19.000 -0.008,15.080 -0.008,10.244 C-0.008,5.682 3.485,1.934 7.944,1.525 C8.152,1.506 8.358,1.575 8.512,1.716 C8.666,1.856 8.754,2.055 8.754,2.264 L8.754,9.503 C8.754,9.912 9.087,10.244 9.496,10.244 L16.741,10.244 C16.950,10.244 17.149,10.333 17.289,10.487 Z"/>
</svg>