<svg 
 xmlns="http://www.w3.org/2000/svg"
 xmlns:xlink="http://www.w3.org/1999/xlink"
 width="0.776cm" height="0.706cm">
<path fill-rule="evenodd"  fill="rgb(176, 190, 197)"
 d="M20.647,10.779 C20.411,11.019 20.103,11.139 19.795,11.139 C19.487,11.139 19.180,11.019 18.944,10.779 L10.986,2.639 C10.728,2.376 10.271,2.376 10.011,2.640 L2.055,10.779 C1.585,11.260 0.822,11.260 0.352,10.779 C-0.118,10.298 -0.118,9.519 0.352,9.038 L8.309,0.899 C9.478,-0.299 11.515,-0.301 12.687,0.897 L15.057,3.320 L15.057,2.022 C15.057,1.342 15.595,0.791 16.260,0.791 C16.925,0.791 17.464,1.342 17.464,2.022 L17.464,5.783 L20.647,9.038 C21.117,9.519 21.117,10.298 20.647,10.779 ZM10.081,4.976 C10.312,4.740 10.686,4.740 10.917,4.976 L17.916,12.133 C18.027,12.246 18.089,12.401 18.089,12.562 L18.089,17.782 C18.089,19.007 17.118,20.000 15.921,20.000 L12.455,20.000 L12.455,14.510 L8.543,14.510 L8.543,20.000 L5.077,20.000 C3.880,20.000 2.908,19.007 2.908,17.782 L2.908,12.562 C2.908,12.401 2.971,12.246 3.082,12.133 L10.081,4.976 Z"/>
</svg>