<svg xmlns="http://www.w3.org/2000/svg" width="27.656" height="34.75" viewBox="0 0 27.656 34.75">
  <metadata><?xpacket begin="﻿" id="W5M0MpCehiHzreSzNTczkc9d"?>
<x:xmpmeta xmlns:x="adobe:ns:meta/" x:xmptk="Adobe XMP Core 5.6-c138 79.159824, 2016/09/14-01:09:01        ">
   <rdf:RDF xmlns:rdf="http://www.w3.org/1999/02/22-rdf-syntax-ns#">
      <rdf:Description rdf:about=""/>
   </rdf:RDF>
</x:xmpmeta>
                                                                                                    
                                                                                                    
                                                                                                    
                                                                                                    
                                                                                                    
                                                                                                    
                                                                                                    
                                                                                                    
                                                                                                    
                                                                                                    
                                                                                                    
                                                                                                    
                                                                                                    
                                                                                                    
                                                                                                    
                                                                                                    
                                                                                                    
                                                                                                    
                                                                                                    
                                                                                                    
                           
<?xpacket end="w"?></metadata>
<defs>
    <style>
      .cls-1 {
        fill: #00c56a;
        fill-rule: evenodd;
      }
    </style>
  </defs>
  <path class="cls-1" d="M58.633,46.257a1.027,1.027,0,0,0-.924.739,2.956,2.956,0,0,1,.718-0.132,0.5,0.5,0,0,1,.371.292,1.114,1.114,0,0,1-.221.695,0.713,0.713,0,0,1-.623.12,4.06,4.06,0,0,1-.866-0.5q-1.217-.789-2.425-1.591a1.881,1.881,0,0,0-2.047-.112,0.534,0.534,0,0,1-.427.017,2.007,2.007,0,0,0-2.222.159q-1.139.767-2.291,1.514a5.8,5.8,0,0,1-.972.542,0.493,0.493,0,0,1-.666-0.308,0.842,0.842,0,0,1-.017-0.669,1.155,1.155,0,0,1,.695-0.124,1.09,1.09,0,0,1,.367.162,1.064,1.064,0,0,0-1.059-.8,1.2,1.2,0,0,0-.867,1.072,1.339,1.339,0,0,0,.5,1.232,2.651,2.651,0,0,0,2.327.554c0.619-.123,1.223-0.32,1.838-0.464A4.022,4.022,0,0,0,52.3,47.519a7.963,7.963,0,0,0,1.4.815c0.927,0.31,1.887.527,2.84,0.754a2.753,2.753,0,0,0,2.523-.5,1.346,1.346,0,0,0,.466-1.525A1.094,1.094,0,0,0,58.633,46.257Zm5.45-7.6a0.549,0.549,0,0,1-.257-0.388c0.263-2.228.553-4.453,0.824-6.68a1.029,1.029,0,0,0-.083-0.549c-0.534-1.088-1.15-2.14-1.618-3.255a4.074,4.074,0,0,0-2.123-2.265c-0.5-.228-0.979-0.508-1.493-0.691a0.8,0.8,0,0,1-.509-0.4,6.487,6.487,0,0,0-.58-0.909c-6.1-3.718-14.823,5.36-14.823,5.36a0.492,0.492,0,0,1-.085.379c-0.565.722-1.1,1.469-1.732,2.133a1.864,1.864,0,0,0-.476,2.248,0.892,0.892,0,0,1,.053.225,9.11,9.11,0,0,1,.4,2.388,12.326,12.326,0,0,0-.053,1.546,0.573,0.573,0,0,1-.4.629,4.463,4.463,0,0,0,.569,8.313,0.966,0.966,0,0,1,.746.734,32.056,32.056,0,0,0,2.813,5.837,7.95,7.95,0,0,0,8.57,3.935,8.065,8.065,0,0,0,5.464-3.668,8.41,8.41,0,0,1,.579-0.867A15.674,15.674,0,0,0,63,47.062a0.757,0.757,0,0,1,.378-0.415A4.546,4.546,0,0,0,65.61,44.7,4.486,4.486,0,0,0,64.083,38.654Zm-20.771-2.3c0.1-.163.174-0.346,0.273-0.511a1.867,1.867,0,0,0,.342-1.712,2.854,2.854,0,0,1,.448-2.512,22.9,22.9,0,0,1,1.57-2.005,0.858,0.858,0,0,1,.623-0.16,22.689,22.689,0,0,1,4.569.788s3.279,1.216,5.321-.609c0.139-.031.278-0.058,0.418-0.078,0.662-.1,1.329-0.157,2-0.209a0.558,0.558,0,0,1,.413.14c0.658,0.757,1.325,1.509,1.925,2.311a3.02,3.02,0,0,1,.447,1.14,1.332,1.332,0,0,1-.6,1.4c0.3,0.613.579,1.235,0.91,1.826a4.277,4.277,0,0,1,.257,1.941c-1.444-.055-2.847-0.134-4.252-0.154a22.825,22.825,0,0,0-4.455.492,5.479,5.479,0,0,1-2.529-.074,16.069,16.069,0,0,0-5.217-.525c-0.889.039-1.775,0.123-2.7,0.189A2.947,2.947,0,0,1,43.313,36.351Zm20.223,8.418a3.879,3.879,0,0,1-1.325.588,0.541,0.541,0,0,0-.482.469,13.7,13.7,0,0,1-3.12,5.972c-0.226.247-.433,0.511-0.7,0.825a11.434,11.434,0,0,0-1.568-2.773l-0.134.048a2.839,2.839,0,0,0,.027.385c0.07,0.341.173,0.675,0.226,1.018a1.328,1.328,0,0,1-1.183,1.6,1.762,1.762,0,0,1-1.735-.51,0.761,0.761,0,0,0-.749-0.174,3.751,3.751,0,0,1-.909,0,0.77,0.77,0,0,0-.735.217,1.9,1.9,0,0,1-2.351.21,1.292,1.292,0,0,1-.514-1.368c0.055-.343.158-0.677,0.23-1.017a0.637,0.637,0,0,0-.033-0.38,7.046,7.046,0,0,0-1.445,2.293,13.813,13.813,0,0,1-3.6-6.767A2.9,2.9,0,0,1,40.3,43.551a2.752,2.752,0,0,1,.563-3.059,2.352,2.352,0,0,1,2.2-.884c0.168,0.9.269,1.745,0.492,2.56a3.477,3.477,0,0,0,4.121,2.717,7.624,7.624,0,0,0,1.58-.355,3.967,3.967,0,0,0,2.659-3.113c0.1-.453.241-0.9,0.363-1.344l0.156,0a11.416,11.416,0,0,1,.4,1.214,4.193,4.193,0,0,0,3.786,3.534,7,7,0,0,0,1.7.052A3.118,3.118,0,0,0,61.027,42.7a15.241,15.241,0,0,0,.487-2.217c0.052-.262.055-0.534,0.079-0.794a2.586,2.586,0,0,1,2.839,1.64A2.889,2.889,0,0,1,63.535,44.768Z" transform="translate(-38.563 -22.625)"/>
</svg>
