<svg 
 xmlns="http://www.w3.org/2000/svg"
 xmlns:xlink="http://www.w3.org/1999/xlink"
 width="0.776cm" height="0.706cm">
<path fill-rule="evenodd"  fill="rgb(176, 190, 197)"
 d="M20.740,15.301 C20.055,15.990 19.176,16.428 18.224,16.562 L18.224,18.956 C18.224,19.380 17.967,19.759 17.570,19.921 C17.443,19.973 17.306,20.000 17.166,20.000 C16.883,20.000 16.617,19.891 16.417,19.694 L13.286,16.606 L4.405,16.606 C1.976,16.606 -0.000,14.657 -0.000,12.262 L-0.000,4.343 C-0.000,1.948 1.976,-0.000 4.405,-0.000 L17.595,-0.000 C20.024,-0.000 22.000,1.948 22.000,4.343 L22.000,12.262 C22.000,13.404 21.553,14.483 20.740,15.301 ZM17.595,2.086 L4.405,2.086 C3.143,2.086 2.116,3.099 2.116,4.343 L2.116,12.262 C2.116,13.507 3.143,14.519 4.405,14.519 L13.724,14.519 C14.002,14.519 14.275,14.631 14.472,14.825 L16.107,16.438 L16.107,15.563 C16.107,14.987 16.582,14.519 17.165,14.519 L17.595,14.519 C18.857,14.519 19.884,13.507 19.884,12.262 L19.884,4.343 C19.884,3.099 18.857,2.086 17.595,2.086 ZM15.827,10.018 C14.889,10.018 14.126,9.265 14.126,8.340 C14.126,7.415 14.889,6.662 15.827,6.662 C16.766,6.662 17.529,7.415 17.529,8.340 C17.529,9.265 16.766,10.018 15.827,10.018 ZM11.000,10.018 C10.062,10.018 9.298,9.265 9.298,8.340 C9.298,7.415 10.062,6.662 11.000,6.662 C11.938,6.662 12.702,7.415 12.702,8.340 C12.702,9.265 11.938,10.018 11.000,10.018 ZM6.173,10.018 C5.234,10.018 4.471,9.265 4.471,8.340 C4.471,7.415 5.234,6.662 6.173,6.662 C7.111,6.662 7.874,7.415 7.874,8.340 C7.874,9.265 7.111,10.018 6.173,10.018 Z"/>
</svg>