<svg 
 xmlns="http://www.w3.org/2000/svg"
 xmlns:xlink="http://www.w3.org/1999/xlink"
 width="0.6cm" height="0.635cm">
<path fill-rule="evenodd"  fill="rgb(176, 190, 197)"
 d="M16.796,14.754 C16.796,14.754 14.568,10.607 10.934,4.638 L10.934,1.181 L11.159,1.181 C11.484,1.181 11.747,0.918 11.747,0.594 C11.747,0.269 11.484,0.004 11.159,0.004 L5.842,0.004 C5.517,0.004 5.252,0.269 5.252,0.594 C5.252,0.918 5.516,1.181 5.841,1.181 L6.065,1.181 L6.065,4.638 C2.432,10.607 0.203,14.767 0.203,14.767 C-0.363,16.450 0.260,17.996 2.070,17.996 L14.930,17.996 C16.740,17.996 17.365,16.437 16.796,14.754 ZM2.861,12.335 C3.600,11.072 6.169,6.807 7.109,5.263 L7.252,5.027 L9.749,5.027 L9.894,5.263 C10.834,6.808 13.353,11.078 14.094,12.342 L2.861,12.335 ZM7.132,11.142 C6.629,11.142 6.221,10.732 6.221,10.228 C6.221,9.727 6.629,9.318 7.132,9.318 C7.635,9.318 8.043,9.727 8.043,10.228 C8.043,10.732 7.635,11.142 7.132,11.142 ZM9.029,9.293 C8.660,9.293 8.362,8.993 8.362,8.625 C8.362,8.257 8.660,7.958 9.029,7.958 C9.398,7.958 9.698,8.257 9.698,8.625 C9.698,8.993 9.400,9.293 9.029,9.293 ZM9.805,11.674 C9.289,11.674 8.870,11.255 8.870,10.737 C8.870,10.221 9.289,9.802 9.805,9.802 C10.320,9.802 10.739,10.221 10.739,10.737 C10.739,11.255 10.320,11.674 9.805,11.674 Z"/>
</svg>